<svg width="389" height="374" viewBox="0 0 389 374" fill="none" xmlns="http://www.w3.org/2000/svg">
<g clip-path="url(#clip0_404_188)">
<path fill-rule="evenodd" clip-rule="evenodd" d="M22.1478 175.223C21.766 176.156 21.2025 177.004 20.4902 177.718C18.9932 179.17 16.9913 179.985 14.9056 179.991H0.0793457C2.74808 80.1115 83.8974 0 192.129 0C300.361 0 380.868 79.5184 383.191 179.596H282.817C280.049 130.521 243.033 88.9578 191.092 88.9578C139.15 88.9578 103.814 130.57 101.343 179.596H90.668C86.023 179.635 81.5808 181.504 78.3055 184.798C75.0301 188.092 73.1859 192.545 73.173 197.19V271.025C73.1717 272.036 72.9701 273.037 72.58 273.97C72.1898 274.903 71.6187 275.75 70.8996 276.461C69.4368 277.863 67.4892 278.645 65.4633 278.645C63.4375 278.645 61.4898 277.863 60.027 276.461C59.2262 275.8 58.5712 274.98 58.1033 274.053C57.6355 273.125 57.365 272.111 57.3089 271.074V140.652C57.34 138.361 56.9196 136.087 56.0716 133.958C55.2236 131.83 53.9647 129.889 52.3668 128.248C49.0215 125.103 44.6029 123.352 40.0115 123.352C35.4202 123.352 31.0016 125.103 27.6563 128.248C26.0561 129.888 24.7958 131.828 23.9476 133.957C23.0995 136.086 22.6803 138.361 22.7142 140.652V172.282C22.7221 173.29 22.5295 174.29 22.1478 175.223ZM383.142 189.481C382.524 224.481 371.552 258.514 351.611 287.285L388.479 318.272L338.663 373.673L299.521 338.584C267.231 359.373 229.594 370.328 191.19 370.114C82.7113 370.114 2.05619 290.25 0.0793457 189.777H14.9056C19.5587 189.777 24.0212 187.929 27.3115 184.638C30.6017 181.348 32.4501 176.886 32.4501 172.233V140.603C32.4487 139.603 32.6444 138.613 33.026 137.688C33.4076 136.764 33.9676 135.924 34.6741 135.216C36.1369 133.815 38.0845 133.032 40.1104 133.032C42.1362 133.032 44.0839 133.815 45.5467 135.216C46.2679 135.926 46.8405 136.772 47.2308 137.706C47.6212 138.639 47.8215 139.641 47.82 140.653V271.272C47.8252 273.573 48.2865 275.849 49.1772 277.97C50.0679 280.09 51.3704 282.014 53.0092 283.628C56.3492 286.849 60.8236 288.624 65.4633 288.57C70.1164 288.57 74.5789 286.721 77.8691 283.431C81.1594 280.141 83.0078 275.678 83.0078 271.025V197.141C83.0064 196.141 83.2021 195.15 83.5837 194.226C83.9653 193.302 84.5253 192.462 85.2317 191.754C85.9361 191.026 86.7814 190.449 87.716 190.058C88.6506 189.667 89.6551 189.471 90.6681 189.481H101.195C102.826 239.445 139.101 282.738 191.932 282.738C204.276 282.74 216.518 280.496 228.058 276.116L191.833 245.821L241.649 189.827L277.035 221.654C280.835 211.345 282.857 200.466 283.015 189.481H383.142Z" fill="url(#paint0_linear_404_188)"/>
</g>
<defs>
<linearGradient id="paint0_linear_404_188" x1="-12.934" y1="145.103" x2="386.309" y2="256.868" gradientUnits="userSpaceOnUse">
<stop stop-color="#41B6E6"/>
<stop offset="1" stop-color="#A4D65E"/>
</linearGradient>
<clipPath id="clip0_404_188">
<rect width="388.4" height="373.672" fill="white" transform="translate(0.0793457)"/>
</clipPath>
</defs>
</svg>
