<svg width="130" height="135" viewBox="0 0 130 135" fill="none" xmlns="http://www.w3.org/2000/svg">
<path d="M44.7094 0H0V63.6593H44.7094V0Z" fill="url(#paint0_linear_2649_70319)"/>
<path d="M93.7457 62.5823C94.0874 62.2426 94.3585 61.8387 94.5433 61.3937C94.7282 60.9488 94.8232 60.4717 94.8228 59.9899V34.1391C94.8228 32.2024 95.5922 30.345 96.9616 28.9755C98.3311 27.606 100.189 26.8366 102.125 26.8366C104.062 26.8366 105.919 27.606 107.289 28.9755C108.658 30.345 109.428 32.2024 109.428 34.1391V88.433C109.432 88.913 109.531 89.3875 109.719 89.8292C109.907 90.2709 110.18 90.6712 110.523 91.0072C110.862 91.3466 111.265 91.616 111.708 91.7997C112.151 91.9835 112.627 92.078 113.106 92.078C113.586 92.078 114.061 91.9835 114.505 91.7997C114.948 91.616 115.351 91.3466 115.69 91.0072C116.031 90.6675 116.302 90.2636 116.487 89.8186C116.672 89.3737 116.767 88.8966 116.767 88.4148V70.9436C116.767 69.0069 117.536 67.1495 118.906 65.78C120.275 64.4105 122.132 63.6411 124.069 63.6411H129.948V3.05176e-05H85.293V63.6594H91.1533C91.6351 63.6598 92.1122 63.5648 92.5571 63.3799C93.0021 63.1951 93.406 62.924 93.7457 62.5823Z" fill="#EC0287"/>
<path d="M121.511 68.3695C120.832 69.0541 120.451 69.9794 120.452 70.9436V88.4148C120.457 89.8637 120.03 91.2812 119.227 92.4871C118.424 93.693 117.28 94.6327 115.941 95.1866C114.603 95.7406 113.129 95.8837 111.709 95.5978C110.288 95.312 108.985 94.61 107.965 93.5813C106.593 92.2181 105.819 90.3666 105.811 88.433V34.1574C105.811 33.6756 105.716 33.1984 105.531 32.7535C105.346 32.3086 105.075 31.9046 104.733 31.565C104.031 30.8985 103.1 30.527 102.132 30.527C101.164 30.527 100.233 30.8985 99.5304 31.565C98.8514 32.2496 98.4708 33.1749 98.4715 34.1391V59.9899C98.4715 61.9266 97.7022 63.784 96.3327 65.1535C94.9632 66.523 93.1058 67.2924 91.1691 67.2924H85.2906V72.8605C85.2906 88.8347 76.8379 95.2243 65.0079 95.2243C53.1779 95.2243 44.7253 88.287 44.7253 71.9477V67.3106H0.0158768V72.5136C0.0158768 116.182 25.3372 134.11 64.6245 134.11C103.912 134.11 130 116.456 130 71.5643V67.2924H124.121C123.637 67.2896 123.156 67.3834 122.708 67.5683C122.26 67.7532 121.853 68.0256 121.511 68.3695Z" fill="url(#paint1_linear_2649_70319)"/>
<defs>
<linearGradient id="paint0_linear_2649_70319" x1="0" y1="31.8205" x2="129.984" y2="31.8205" gradientUnits="userSpaceOnUse">
<stop offset="0.2" stop-color="#FF6C0E"/>
<stop offset="0.8" stop-color="#EC008C"/>
</linearGradient>
<linearGradient id="paint1_linear_2649_70319" x1="0.0158773" y1="79.9824" x2="130" y2="79.9824" gradientUnits="userSpaceOnUse">
<stop stop-color="#FD651D"/>
<stop offset="1" stop-color="#EB0089"/>
</linearGradient>
</defs>
</svg>
